<?xml version="1.0" encoding="UTF-8" standalone="no"?>
<!DOCTYPE svg PUBLIC "-//W3C//DTD SVG 1.1//EN" "http://www.w3.org/Graphics/SVG/1.1/DTD/svg11.dtd">
<svg width="100%" height="100%" viewBox="0 0 1400 800" version="1.1" xmlns="http://www.w3.org/2000/svg" xmlns:xlink="http://www.w3.org/1999/xlink" xml:space="preserve" xmlns:serif="http://www.serif.com/" style="fill-rule:evenodd;clip-rule:evenodd;stroke-linejoin:round;stroke-miterlimit:2;">
    <g id="Design-sans-titre.png" serif:id="Design sans titre.png" transform="matrix(1,0,0,1,374,222)">
        <path d="M201.505,4.928C234.502,4.61 234.486,4.499 267.5,4.455C274.022,4.447 273.996,4.531 280.5,4.574C283.623,4.594 293.869,3.95 292.246,7.368C292.164,7.542 291.925,7.583 291.786,7.716C291.259,8.222 291.301,8.293 290.509,8.519C290.203,8.607 289.862,8.597 289.581,8.747C289.456,8.814 289.51,9.064 289.38,9.123C289.091,9.253 288.754,9.22 288.44,9.262C287.794,9.349 287.134,9.355 286.502,9.51C286.105,9.608 285.777,9.9 285.384,10.012C285.28,10.042 284.322,10.027 282.505,10.516C282.203,10.597 281.881,10.631 281.603,10.776C281.477,10.841 281.477,11.053 281.351,11.118C280.519,11.545 280.403,11.203 279.603,11.697C279.458,11.786 279.422,11.999 279.278,12.089C278.538,12.555 278.418,12.287 277.703,12.804C277.547,12.917 277.476,13.124 277.322,13.239C277.102,13.403 276.812,13.459 276.597,13.63C276.432,13.761 276.367,13.993 276.204,14.128C275.596,14.631 275.465,14.415 274.885,14.938C274.718,15.088 274.632,15.312 274.469,15.467C274.285,15.642 274.041,15.609 273.464,16.467C273.245,16.793 270.483,19.952 269.415,22.459C268.755,24.01 267.091,26.801 265.233,35.447C264.452,39.083 264,47.208 264.825,50.423C264.978,51.021 268.098,59.65 269.361,63.547C269.806,64.919 269.911,64.875 275.225,80.592C276.171,83.386 277.129,85.588 281.328,98.56C285.318,110.884 287.748,117.889 288.329,119.562C289.241,122.191 289.138,122.221 299.286,152.575C301.197,158.291 301.339,159.45 303.254,164.594C304.821,168.807 307.696,178.816 309.196,182.621C309.866,184.32 312.222,191.714 312.474,192.508C313.915,197.03 314.369,196.859 316.858,205.396C318.55,211.199 320.101,211.407 317.204,223.426C313.82,237.47 313.96,237.488 310.253,251.435C308.149,259.35 307.913,259.261 305.718,267.562C304.859,270.809 303,276.571 301.607,281.532C299.171,290.212 298.529,289.958 297.814,290.817C296.912,291.902 296.772,292.061 295.465,291.558C294.505,291.189 293.386,287.79 292.432,285.529C291.345,282.953 289.184,276.391 286.484,269.506C283.337,261.483 263.742,203.978 259.805,193.386C258.8,190.682 258.859,190.681 247.863,159.373C235.021,122.811 235.005,122.833 221.908,86.352C220.306,81.887 220.435,81.862 218.785,77.397C215.271,67.89 215.497,67.829 211.952,58.336C211.864,58.1 211.902,58.088 210.9,55.357C210.571,54.461 210.713,54.431 210.372,53.547C208.597,48.944 208.78,48.9 206.988,44.325C206.804,43.854 206.843,43.847 204.9,38.363C204.366,36.855 204.438,36.851 203.906,35.362C203.799,35.064 203.748,34.749 203.658,34.446C203.537,34.036 202.794,31.532 201.292,29.665C201.159,29.499 200.929,29.426 200.807,29.252C200.498,28.812 200.322,28.288 200.016,27.846C199.903,27.682 199.685,27.613 199.564,27.454C199.398,27.238 199.33,26.957 199.166,26.739C199.047,26.58 198.846,26.496 198.725,26.337C198.561,26.121 198.492,25.841 198.323,25.63C198.196,25.472 197.966,25.415 197.852,25.248C197.545,24.802 197.386,24.265 197.077,23.82C196.959,23.649 196.724,23.589 196.592,23.428C196.425,23.225 196.361,22.95 196.194,22.748C196.056,22.581 195.83,22.503 195.689,22.338C195.523,22.144 195.454,21.878 195.285,21.687C195.136,21.519 194.899,21.445 194.75,21.278C194.581,21.09 194.515,20.824 194.345,20.637C194.193,20.47 193.952,20.401 193.8,20.234C193.63,20.047 193.567,19.779 193.396,19.594C192.915,19.073 192.834,19.165 192.432,18.564C191.607,17.329 191.254,17.572 190.823,17.155C190.655,16.993 190.596,16.739 190.428,16.577C190.248,16.405 189.98,16.346 189.8,16.176C189.632,16.017 189.57,15.766 189.401,15.608C189.217,15.436 188.948,15.376 188.761,15.207C188.594,15.055 188.527,14.813 188.359,14.663C188.167,14.493 187.895,14.431 187.7,14.264C187.459,14.059 187.611,13.876 186.61,13.355C186.361,13.225 186.065,13.177 185.845,13.002C185.684,12.874 185.672,12.613 185.512,12.483C185.296,12.306 184.982,12.286 184.76,12.118C184.602,11.998 184.559,11.763 184.401,11.643C184.177,11.473 183.872,11.433 183.643,11.27C183.276,11.008 183.393,10.825 182.491,10.52C178.849,9.292 178.765,9.873 171.491,9.646C171.264,9.639 169.168,9.573 168.686,9.237C168.488,9.098 168.487,8.78 168.309,8.617C168.167,8.488 167.8,8.596 167.773,8.406C167.696,7.858 168.131,7.976 168.142,7.435C168.151,6.979 167.799,7.088 167.809,6.629C168.048,6.564 168.31,6.611 168.55,6.545C169.257,6.352 169.633,5.891 169.644,5.887C169.837,5.817 172.278,5.65 172.507,5.634C174.826,5.556 192.243,4.964 201.505,4.928Z"/>
        <path d="M123.498,6.538C123.703,6.569 126.063,6.932 126.063,6.932C126.272,7.045 126.101,7.488 126.311,7.602C126.418,8.964 127.343,9.51 124.787,11.818C122.156,14.193 122.017,13.993 119.358,16.334C118.028,17.504 116.733,18.519 113.395,22.414C112.211,23.795 112.35,23.883 111.291,25.359C107.924,30.056 107.906,31.619 107.217,34.434C105.517,41.37 105.901,50.865 107.174,55.589C107.849,58.094 112.992,76.412 115.176,82.617C118.327,91.568 118.101,91.623 121.307,100.574C122.244,103.193 122.02,103.263 132.783,133.402C135.65,141.432 158.913,208.464 159.392,210.527C160.376,214.767 158.914,217.645 154.652,233.541C153.644,237.303 144.783,266.107 144.658,266.548C144.244,268.006 143.986,267.921 138.981,284.637C138.829,285.145 137.463,291.443 134.52,291.276C132.84,291.181 131.907,288.713 131.409,287.538C129.52,283.082 123.446,265.344 122.782,263.404C111.873,231.543 109.921,223.585 88.184,159.613C86.323,154.134 83.843,146.64 83.469,145.51C80.637,136.951 80.651,136.964 77.746,128.417C77.339,127.219 73.875,117.029 72.694,113.432C70.753,107.524 70.73,107.549 52.943,55.353C52.755,54.802 50.773,48.985 50.628,48.455C50.212,46.93 50.019,47.014 49.631,45.459C49.245,43.911 49.124,43.964 48.643,42.448C48.457,41.86 48.298,41.26 48.055,40.694C48.013,40.597 47.915,40.676 47.405,39.554C46.693,37.987 43.726,35.335 43.699,35.307C43.531,35.134 43.44,34.896 43.27,34.725C43.103,34.556 42.868,34.465 42.699,34.298C41.083,32.703 41.133,32.653 40.619,32.366C40.391,32.239 40.103,32.212 39.91,32.037C39.736,31.88 39.746,31.578 39.574,31.418C39.388,31.246 39.075,31.259 38.889,31.088C38.712,30.926 38.706,30.63 38.534,30.464C38.35,30.287 38.047,30.275 37.861,30.1C37.691,29.94 37.673,29.658 37.504,29.495C37.316,29.314 37.019,29.281 36.826,29.104C36.662,28.953 36.63,28.691 36.466,28.541C36.272,28.364 35.982,28.321 35.782,28.151C35.617,28.012 35.56,27.772 35.395,27.633C35.192,27.463 34.907,27.413 34.702,27.246C34.508,27.089 34.57,26.822 33.613,26.357C33.369,26.239 33.068,26.222 32.859,26.048C32.687,25.903 32.7,25.609 32.536,25.456C32.343,25.277 32.032,25.268 31.834,25.095C31.666,24.948 31.638,24.682 31.475,24.53C31.286,24.353 31.003,24.304 30.806,24.136C30.639,23.995 30.569,23.762 30.403,23.62C30.202,23.449 29.927,23.383 29.724,23.214C29.562,23.079 29.487,22.857 29.325,22.721C29.123,22.551 28.851,22.48 28.648,22.311C28.41,22.113 28.552,21.942 27.564,21.416C27.326,21.289 27.046,21.235 26.832,21.071C26.664,20.942 26.619,20.693 26.453,20.563C26.24,20.398 25.94,20.376 25.726,20.212C25.559,20.083 25.506,19.842 25.342,19.71C25.132,19.54 24.837,19.499 24.629,19.327C24.219,18.989 24.36,18.836 23.551,18.429C23.301,18.303 23.011,18.246 22.787,18.077C22.627,17.956 22.596,17.712 22.439,17.589C22.219,17.415 21.917,17.372 21.689,17.21C21.375,16.988 21.499,16.825 20.558,16.406C20.291,16.287 19.983,16.251 19.738,16.09C19.587,15.99 19.564,15.754 19.413,15.653C19.168,15.49 18.84,15.486 18.591,15.328C18.449,15.237 18.441,14.976 18.278,14.931C18.09,14.879 17.895,15.152 17.711,15.084C17.543,15.021 17.589,14.719 17.44,14.619C17.191,14.451 16.847,14.478 16.588,14.325C16.447,14.242 16.444,13.98 16.286,13.938C16.092,13.886 15.894,14.152 15.704,14.09C15.542,14.037 15.575,13.746 15.429,13.659C14.608,13.168 14.479,13.6 13.615,13.164C13.492,13.101 13.515,12.878 13.393,12.815C13.38,12.809 13.392,12.813 7.533,11.389C5.758,10.958 5.328,9.941 5.127,9.695C4.836,9.34 4.64,9.365 4.647,8.505C4.662,6.651 7.216,6.473 7.496,6.453C9.462,6.316 85.7,6.426 92.5,6.435C94.98,6.439 115.35,6.468 123.498,6.538Z"/>
        <path d="M570.172,285.833C571.192,286.827 571.178,286.819 572.211,287.803C572.492,288.071 575.126,290.579 575.825,291.045C576.28,291.349 576.796,291.555 577.25,291.861C577.343,291.923 577.333,291.922 578.379,292.689C578.665,292.87 578.529,293.057 579.538,293.422C580.206,293.664 580.863,293.958 581.56,294.094C581.858,294.152 582.161,293.975 582.463,293.992C582.819,294.013 583.155,294.175 583.51,294.208C587.293,294.56 588.641,293.827 593.281,294.834C593.38,295.039 593.575,295.188 593.673,295.393C593.836,295.732 594.106,296.079 594.06,296.452C594.013,296.837 593.606,297.084 593.424,297.427C593.325,297.611 593.417,297.941 593.224,298.021C592.675,298.246 592.005,298.009 591.456,298.234C581.719,298.796 549.579,298.983 549.509,298.999C549.15,299.08 548.861,299.381 548.498,299.44C547.967,299.527 508.02,299.554 504.5,299.557C501.943,299.558 474.172,299.577 472.538,299.336C472.228,299.29 471.902,299.282 471.616,299.154C471.482,299.095 471.479,298.872 471.348,298.807C470.873,298.571 470.28,298.584 469.848,298.276C469.652,298.136 469.44,297.012 469.702,296.584C469.807,296.413 470.08,296.433 470.238,296.31C470.838,295.847 470.777,295.762 471.519,295.541C471.82,295.451 472.152,295.44 472.429,295.293C472.548,295.23 472.503,294.974 472.635,294.948C472.887,294.898 473.136,295.138 473.39,295.102C473.564,295.077 473.498,294.841 475.511,294.555C477.56,294.264 477.49,294.038 479.498,293.495C479.801,293.413 480.124,293.378 480.402,293.234C480.528,293.169 480.53,292.959 480.656,292.895C481.484,292.475 481.593,292.8 482.405,292.314C482.547,292.23 482.594,292.03 482.736,291.944C483.487,291.489 483.594,291.73 484.321,291.22C484.473,291.113 484.551,290.921 484.703,290.813C484.93,290.651 485.223,290.592 485.442,290.42C485.606,290.291 485.668,290.061 485.829,289.928C486.035,289.758 486.326,289.708 486.525,289.528C486.696,289.373 486.742,289.109 486.912,288.952C487.461,288.441 487.617,288.671 488.138,288.144C489.095,287.176 489.41,286.645 489.497,286.498C489.633,286.27 489.714,286.007 489.878,285.8C490.009,285.635 490.237,285.567 490.366,285.402C490.535,285.186 490.594,284.899 490.756,284.677C491.171,284.109 491.254,284.178 491.552,283.531C492.024,282.504 492.209,282.613 492.617,281.556C492.773,281.152 496.61,273.093 497.359,264.487C498.452,251.928 496.376,252.13 493.388,242.538C493.203,241.945 481.276,207.572 476.77,193.413C476.113,191.347 466.223,161.962 464.274,155.573C463.95,154.509 463.797,154.575 459.855,142.387C457.811,136.065 457.571,136.154 455.287,128.57C453.48,122.567 443.487,94.909 443.204,91.526C442.782,86.483 447.415,70.322 448.704,64.549C450.658,55.793 461.43,18.526 462.266,16.41C462.987,14.585 463.042,14.619 464.217,13.227C465.111,12.167 465.226,11.985 466.538,12.427C468.069,12.943 470.678,21.747 473.308,28.573C474.282,31.103 484.83,60.005 486.86,66.388C490.443,77.659 536.259,207.205 538.289,212.579C540.022,217.165 540.258,218.552 543.903,228.339C544.406,229.692 544.338,229.694 549.892,245.356C550.493,247.05 550.439,247.043 557.339,266.554C558.297,269.264 558.859,271.991 560.727,274.319C561.175,274.878 561.174,274.86 561.618,275.411C562.886,276.986 564.167,278.979 564.562,279.452C565.023,280.003 565.076,279.941 565.449,280.542C566.293,281.902 569.774,285.429 570.172,285.833Z" style="fill:white;"/>
        <path d="M379.499,6.402C389.643,6.139 389.631,5.981 390.513,5.96C395.093,5.851 395.088,6.022 395.486,6.011C395.833,6.002 396.164,5.849 396.509,5.811C397.015,5.756 415.92,5.561 417.479,5.789C422.869,6.577 423.713,6.726 423.83,8.467C423.922,9.829 423.67,9.814 422.593,10.64C422.459,10.742 422.409,10.949 422.253,11.014C422.095,11.081 421.904,10.948 421.74,10.997C421.601,11.04 421.536,11.215 421.403,11.273C420.844,11.521 420.242,11.664 419.681,11.909C419.554,11.965 419.482,12.114 419.354,12.17C418.796,12.416 418.19,12.549 417.639,12.81C417.506,12.873 417.465,13.061 417.335,13.129C416.525,13.552 416.421,13.28 415.629,13.756C415.488,13.84 415.442,14.039 415.301,14.122C415.044,14.272 414.741,14.324 414.465,14.435C413.418,14.855 413.523,15.036 412.495,15.491C410.908,16.194 411.118,16.512 409.444,17.418C408.592,17.878 408.683,17.991 408.328,18.272C407.155,19.198 407.103,19.095 405.929,19.997C405.753,20.132 405.677,20.367 405.513,20.515C405.326,20.684 405.073,20.769 404.887,20.938C403.863,21.868 403.546,22.313 403.449,22.449C403.034,23.032 402.961,22.938 402.462,23.464C402.288,23.648 402.22,23.915 402.052,24.104C401.903,24.271 401.669,24.349 401.523,24.518C401.35,24.718 401.274,24.989 401.108,25.194C400.649,25.762 400.65,25.734 400.22,26.297C399.796,26.854 399.8,26.838 399.378,27.415C396.242,31.709 394.496,35.05 394.293,35.388C389.818,42.827 389.397,54.53 386.68,57.657C386.52,57.842 384.889,59.955 383.355,58.742C383.159,58.587 382.132,58.127 381.672,55.464C381.209,52.78 381.273,52.78 381.228,52.548C380.537,49 380.573,49.015 379.957,45.433C379.351,41.909 378.394,31.092 375.24,26.68C373.182,23.8 373.133,23.863 370.758,21.263C370.591,21.081 370.504,20.833 370.334,20.654C370.175,20.487 369.941,20.403 369.783,20.235C369.614,20.056 369.538,19.803 369.365,19.627C369.204,19.462 368.958,19.395 368.797,19.228C368.625,19.05 368.557,18.788 368.385,18.61C368.219,18.438 367.968,18.364 367.8,18.193C367.634,18.024 367.566,17.774 367.398,17.607C367.223,17.433 366.968,17.357 366.79,17.187C366.623,17.026 366.544,16.788 366.378,16.628C366.202,16.459 365.952,16.381 365.777,16.212C365.609,16.048 365.533,15.804 365.363,15.642C365.185,15.472 364.929,15.401 364.749,15.233C364.582,15.076 364.512,14.832 364.34,14.68C364.148,14.509 363.875,14.449 363.679,14.283C363.328,13.987 363.47,13.825 362.55,13.418C362.269,13.294 361.954,13.243 361.691,13.084C361.56,13.005 361.538,12.799 361.404,12.727C360.542,12.261 358.669,11.821 358.426,11.764C356.687,11.356 356.679,11.41 356.529,11.37C352.999,10.423 352.906,10.887 349.382,9.867C347.37,9.285 346.338,9.288 347.24,7.389C347.825,6.159 350.062,6.33 351.5,6.348C365.501,6.52 365.483,6.478 379.499,6.402Z"/>
        <path d="M393.216,284.779C398.608,290.276 398.661,291.274 407.392,292.937C407.783,293.014 408.144,293.213 408.535,293.29C409.989,293.577 409.99,293.435 411.445,293.711C411.796,293.778 415.555,294.492 415.017,296.384C414.487,298.244 413.58,297.314 382.501,297.553C367.976,297.664 368.008,298.292 353.5,298.288C352.546,298.288 342.739,298.284 341.582,298.012C341.198,297.922 340.853,297.707 340.478,297.583C339.74,297.339 339.725,297.399 339.143,296.917C337.556,295.603 337.16,295.054 338.741,293.733C338.936,293.57 339.206,293.52 339.41,293.368C339.548,293.265 339.593,293.046 339.753,292.98C339.91,292.916 340.099,293.069 340.261,293.02C340.404,292.976 340.462,292.785 340.599,292.724C340.896,292.591 340.928,292.699 344.365,291.184C346.248,290.354 346.247,290.386 346.398,290.293C346.535,290.207 346.568,290.001 346.707,289.919C347.483,289.461 347.61,289.778 348.37,289.27C348.519,289.17 348.549,288.943 348.698,288.845C349.435,288.365 349.564,288.656 350.299,288.169C350.45,288.069 350.512,287.865 350.662,287.762C350.898,287.602 351.201,287.56 351.435,287.397C351.591,287.287 351.649,287.071 351.805,286.961C352.492,286.48 352.607,286.724 353.285,286.2C353.443,286.077 353.52,285.868 353.678,285.745C353.891,285.579 354.173,285.516 354.382,285.345C354.543,285.213 354.608,284.988 354.768,284.855C354.973,284.684 355.26,284.628 355.458,284.45C355.625,284.3 355.671,284.045 355.837,283.896C356.029,283.723 356.318,283.683 356.507,283.508C356.679,283.348 356.718,283.076 356.891,282.918C357.444,282.413 357.606,282.667 358.154,282.14C358.323,281.977 358.407,281.739 358.573,281.573C358.74,281.406 358.976,281.318 359.142,281.15C359.311,280.978 359.401,280.739 359.568,280.565C359.725,280.401 359.952,280.314 360.105,280.147C360.275,279.962 360.358,279.709 360.525,279.522C360.668,279.361 360.899,279.287 361.026,279.114C361.339,278.686 361.524,278.175 361.83,277.741C361.944,277.579 362.155,277.502 362.274,277.342C362.44,277.121 362.512,276.84 362.674,276.616C362.785,276.462 362.981,276.38 363.084,276.22C363.693,275.277 363.629,275.252 364.281,274.353C365.191,273.099 364.987,272.99 365.856,271.728C365.961,271.575 366.156,271.5 366.261,271.348C366.422,271.115 366.482,270.822 366.644,270.589C366.747,270.442 366.971,270.39 367.042,270.224C367.099,270.09 366.928,269.923 366.988,269.79C367.06,269.627 367.293,269.587 367.391,269.438C367.554,269.193 367.6,268.884 367.753,268.633C367.836,268.496 368.018,268.434 368.088,268.29C368.905,266.606 371.356,259.902 371.776,257.571C372.143,255.533 372.349,255.601 372.737,253.554C372.843,252.994 373.691,248.517 374.905,246.778C375.02,246.614 375.226,246.534 375.356,246.382C375.458,246.262 376.429,245.121 376.728,244.984C378.98,243.954 379.884,247.052 379.974,247.361C380.872,250.438 383.81,269.85 383.943,270.407C385.423,276.61 388.958,279.892 389.413,280.572C389.971,281.406 392.902,284.452 393.216,284.779Z" style="fill:white;"/>
        <path d="M123.498,6.538C123.871,6.436 124.107,6.022 124.48,5.921C125.069,5.761 127.029,5.812 127.087,5.886C127.323,6.185 127.111,6.653 127.084,6.713C126.833,7.266 126.56,7.052 126.311,7.602C126.101,7.488 126.272,7.045 126.063,6.932C126.063,6.932 123.703,6.569 123.498,6.538Z"/>
        <path d="M383.514,3.944C386.38,3.975 386.404,3.882 386.5,3.977C386.578,4.055 386.816,4.328 385.515,4.953C385.215,5.097 384.815,5.079 384.518,4.929C384.099,4.718 383.933,4.155 383.514,3.944Z"/>
    </g>
</svg>
